PathFileType	4	(X/Y/Z)	C:\Users\Basilio\Documents\Thesis Gigler\squatting_fais\c3dfiles\019\SLS_back_pre5\markers_experimental.trc
DataRate	CameraRate	NumFrames	NumMarkers	Units	OrigDataRate	OrigDataStartFrame	OrigNumFrames
200.000000	200.000000	4	59	mm	200.000000	518	2073
Frame#	Time	FHD			LBHD			RBHD			C7			T10			CLAV			LSHO			LUUPA			LMUPA			LDUPA			LLEP			LMEP			LRAD			LUL			LRFIN			RSHO			RUPA1			RMUPA			RDUPA			RLEP			RMEP			RRAD			RUL			RUFIN			LASI			RASI			USACR			LSACR			RSACR			LTHI1			LTHI2			LTHI3			LTHI4			LLFC			LTIB1			LTIB2			LTIB3			LTIB4			LLMAL			LMMAL			LHEE			LMT1			LMT2			LMT5			RTHI			RTHI2			RTHI3			RTHI4			RLFC			RTIB1			RTIB2			RTIB3			RTIB4			RLMAL			RMMAL			RHEE			RMT1			RMT2			RMT5			
		X1	Y1	Z1	X2	Y2	Z2	X3	Y3	Z3	X4	Y4	Z4	X5	Y5	Z5	X6	Y6	Z6	X7	Y7	Z7	X8	Y8	Z8	X9	Y9	Z9	X10	Y10	Z10	X11	Y11	Z11	X12	Y12	Z12	X13	Y13	Z13	X14	Y14	Z14	X15	Y15	Z15	X16	Y16	Z16	X17	Y17	Z17	X18	Y18	Z18	X19	Y19	Z19	X20	Y20	Z20	X21	Y21	Z21	X22	Y22	Z22	X23	Y23	Z23	X24	Y24	Z24	X25	Y25	Z25	X26	Y26	Z26	X27	Y27	Z27	X28	Y28	Z28	X29	Y29	Z29	X30	Y30	Z30	X31	Y31	Z31	X32	Y32	Z32	X33	Y33	Z33	X34	Y34	Z34	X35	Y35	Z35	X36	Y36	Z36	X37	Y37	Z37	X38	Y38	Z38	X39	Y39	Z39	X40	Y40	Z40	X41	Y41	Z41	X42	Y42	Z42	X43	Y43	Z43	X44	Y44	Z44	X45	Y45	Z45	X46	Y46	Z46	X47	Y47	Z47	X48	Y48	Z48	X49	Y49	Z49	X50	Y50	Z50	X51	Y51	Z51	X52	Y52	Z52	X53	Y53	Z53	X54	Y54	Z54	X55	Y55	Z55	X56	Y56	Z56	X57	Y57	Z57	X58	Y58	Z58	X59	Y59	Z59	

519	2.59	-283.5047607421876	1720.763549804688	-679.0017089843751	-410.2666015625001	1686.900756835938	-822.7684326171877	-414.6714782714845	1680.283325195313	-683.0363769531251	-433.7363891601564	1503.46044921875	-743.6699218750001	-456.2090454101564	1213.567260742188	-734.2206420898439	-293.8885803222657	1467.3447265625	-750.7437133789064	-349.2540893554688	1506.437622070313	-892.335632324219	-218.7687530517579	1466.87841796875	-948.2109375000002	-192.5114746093751	1471.03173828125	-906.8549804687502	-151.5826416015625	1461.521728515625	-950.9859008789065	-82.27108001708986	1420.12841796875	-974.2014770507815	-81.0385208129883	1362.85009765625	-945.1918945312502	158.6322326660157	1468.424682617188	-902.8579101562502	165.0724182128907	1415.816772460938	-941.2651977539065	234.1121520996094	1484.637329101563	-906.5559692382815	-335.5007629394532	1501.669555664063	-615.6702880859376	-213.7373504638672	1415.71484375	-518.5483398437501	-182.8919830322266	1447.08251953125	-543.5042114257814	-145.0591888427735	1408.01025390625	-520.9086303710939	-70.08399200439455	1397.29150390625	-530.5867309570314	-81.00421142578126	1347.435302734375	-558.0090942382814	171.7487487792969	1453.07666015625	-577.0227661132814	183.1579895019532	1396.604614257813	-550.7234497070314	256.3600158691407	1461.561889648438	-565.1566772460939	-307.9934692382813	1014.353271484375	-867.6885375976565	-279.6958007812501	1003.448547363281	-661.7832641601564	-454.490692138672	1081.7490234375	-739.2799072265626	-462.8604736328126	1050.50634765625	-767.8540039062501	-453.6668701171876	1049.49560546875	-710.7812500000001	-309.9129028320313	761.2398071289064	-942.4685668945315	-253.8847045898438	698.0659179687501	-948.3330688476565	-209.5617218017579	713.3915405273439	-934.2023925781252	-262.7358398437501	638.2615966796876	-938.0950317382815	-253.8155822753907	554.7172241210939	-920.8311157226565	-319.8127136230469	435.5413818359376	-881.542663574219	-390.1286621093751	459.4234619140626	-928.6033325195315	-371.8193969726563	427.4771118164064	-905.7022094726565	-439.6861267089845	393.1516113281251	-862.8640136718752	-589.1909179687501	388.6566162109376	-874.772155761719	-561.6170043945314	380.4861145019532	-792.3507080078127	-647.0480346679689	425.5907287597657	-818.5774536132815	-563.8001098632814	229.9170379638672	-797.8334960937502	-569.8711547851564	223.5953216552735	-836.4426269531252	-618.0086669921876	246.6996154785157	-881.854187011719	-310.7539978027344	796.902282714844	-597.7634277343751	-268.8304748535157	747.6152343750001	-613.6046752929689	-246.791976928711	757.9041748046876	-638.9567260742189	-290.8279113769532	669.4832153320314	-615.7431030273439	-323.5735473632813	509.7683410644532	-655.5432128906251	-299.3132934570313	333.4635314941407	-734.7778320312501	-349.0803222656251	251.600082397461	-679.6096191406251	-319.0172119140626	250.1337890625001	-716.5999755859376	-338.0028381347657	213.4989929199219	-758.3823242187501	-399.1171875000001	130.5884399414063	-714.7136840820314	-388.0760498046876	137.4617767333985	-789.9011230468752	-466.159149169922	111.3580932617188	-761.9387207031251	-269.0933837890626	55.60019302368165	-794.0195922851565	-259.4145812988282	56.5968589782715	-750.8712158203126	-301.3746643066407	52.73117446899415	-693.6741333007814	
520	2.595	-283.4456176757813	1720.797607421875	-679.1823730468751	-410.3261718750001	1686.85693359375	-822.9067382812502	-414.6397705078126	1680.211547851563	-683.0772094726564	-433.5303344726564	1503.510620117188	-743.7551269531251	-456.2091064453126	1213.569580078125	-734.2170410156251	-293.8255615234376	1467.312744140625	-750.8146362304689	-349.2249145507813	1506.381591796875	-892.3944091796877	-218.7214813232422	1466.772216796875	-948.3560791015627	-192.3915710449219	1470.844360351563	-906.9818115234377	-151.5146179199219	1461.378051757813	-951.1692504882815	-82.28021240234376	1419.951538085938	-974.5244140625002	-81.04298400878908	1362.651000976563	-945.4241943359377	158.7323455810547	1467.994018554688	-903.2234497070315	165.1097412109375	1415.4638671875	-941.7344970703127	234.3488464355469	1484.113403320313	-906.8940429687502	-335.3357238769532	1501.663452148438	-615.6142578125001	-213.7337188720704	1415.661865234375	-518.5991210937501	-182.8923645019532	1446.7041015625	-543.5399780273439	-144.98193359375	1407.963012695313	-520.8950195312501	-70.10010528564455	1397.120971679688	-530.6853637695314	-80.94934082031251	1347.366088867188	-558.0553588867189	171.9199829101563	1453.322509765625	-577.2118530273439	183.1547546386719	1396.451293945313	-550.8120727539064	256.4119262695313	1461.328369140625	-565.3768310546876	-308.0688171386719	1014.368103027344	-867.6870117187502	-279.6921691894532	1003.457458496094	-661.7805786132814	-454.6042785644532	1081.681640625	-739.2592773437501	-462.977020263672	1050.484375	-767.8330078125001	-453.5882568359376	1049.460571289063	-710.7246704101564	-310.0468750000001	761.2165527343751	-942.4871215820315	-254.0643310546876	697.9877319335939	-948.3165283203127	-209.7253570556641	713.3137817382814	-934.2750244140627	-262.9075622558594	638.1972656250001	-938.0557250976565	-254.0849151611329	554.6040649414064	-920.8098144531252	-320.0139770507813	435.5210266113282	-881.5238037109377	-390.4119873046876	459.3014526367189	-928.5442504882815	-372.0864868164063	427.364715576172	-905.6728515625002	-439.8852844238282	392.8991699218751	-862.8416748046877	-589.4996948242189	388.5856018066407	-874.6897583007815	-561.8072509765626	380.3488159179688	-792.2955322265627	-647.2595214843751	425.4600219726564	-818.468444824219	-563.9625854492189	229.814193725586	-797.7152099609377	-570.0574951171876	223.3886413574219	-836.3640747070315	-618.1274414062501	246.4857177734376	-881.7611083984377	-310.6427001953126	796.8919677734377	-597.7684326171876	-268.8067016601563	747.5872192382814	-613.6338500976564	-246.8440093994141	757.9340209960939	-639.0369262695314	-290.7599792480469	669.4601440429689	-615.8111572265626	-323.4408264160157	509.7078857421876	-655.5791625976564	-299.1674194335938	333.4680786132813	-734.9227905273439	-348.9733886718751	251.5686950683594	-679.6549682617189	-318.9509887695313	250.0999450683594	-716.6738281250001	-337.9574890136719	213.5676269531251	-758.4289550781251	-399.0044555664064	130.5306396484375	-714.7349243164064	-387.962127685547	137.400146484375	-790.0135498046877	-466.0894165039064	111.3280410766602	-761.9766235351564	-269.1630249023438	55.58781814575197	-794.0408325195315	-259.4472656250001	56.64239501953126	-750.9477539062501	-301.3063659667969	52.74733734130861	-693.7181396484376	
521	2.6	-283.3817749023438	1720.71728515625	-679.0059814453126	-410.1917419433595	1686.905029296875	-822.9581298828127	-414.5325622558595	1680.163818359375	-683.1409301757814	-433.526092529297	1503.488159179688	-743.8348388671876	-456.194305419922	1213.565673828125	-734.2214965820314	-293.7710571289063	1467.271240234375	-750.9024047851564	-349.0780944824219	1506.342651367188	-892.4827880859377	-218.6946716308594	1466.755493164063	-948.4900512695315	-192.2855987548829	1470.694580078125	-907.1691894531252	-151.4907379150391	1461.282592773438	-951.389831542969	-82.16784667968751	1419.776489257813	-974.8182373046877	-81.03818511962892	1362.401000976563	-945.6899414062502	158.7918701171875	1467.5283203125	-903.711364746094	165.1491241455078	1415.116577148438	-942.2188110351565	234.3603668212891	1483.627197265625	-907.2950439453127	-335.3978576660157	1501.615112304688	-615.7713623046876	-213.7398681640626	1415.684692382813	-518.6376342773439	-182.8669891357422	1446.61181640625	-543.5430908203126	-144.9426422119141	1407.9443359375	-520.9512329101564	-70.09002685546876	1397.029907226563	-530.6678466796876	-80.96863555908205	1347.270385742188	-557.9411621093751	172.0181427001953	1453.189819335938	-577.4030761718751	183.0599212646485	1396.2822265625	-550.9216918945314	256.3710327148438	1461.13623046875	-565.4625244140626	-308.0814208984376	1014.393371582031	-867.722351074219	-279.6968994140626	1003.429626464844	-661.8210449218751	-454.5508728027345	1081.716552734375	-739.2189941406251	-462.8570556640626	1050.497802734375	-767.8219604492189	-453.6831665039064	1049.478271484375	-710.7659301757814	-310.1708984375001	761.2011108398439	-942.4868774414065	-254.2788848876954	697.9172363281251	-948.3386230468752	-209.905014038086	713.2214965820314	-934.2980957031252	-263.0921936035157	638.1860351562501	-938.080261230469	-254.2708892822266	554.5681152343751	-920.7939453125002	-320.2573242187501	435.4052734375001	-881.4499511718752	-390.6661071777345	459.1956481933595	-928.5371093750002	-372.2289123535157	427.270721435547	-905.580993652344	-440.0335388183595	392.6836547851564	-862.7734985351565	-589.7500610351564	388.4849853515626	-874.6013183593752	-561.9925537109376	380.2174682617188	-792.1353759765627	-647.4587402343751	425.3005371093751	-818.363952636719	-564.2705078125001	229.5950622558594	-797.5971679687502	-570.3634033203126	223.2049255371094	-836.264831542969	-618.4099731445314	246.3405914306641	-881.7088623046877	-310.6327209472657	796.8691406250002	-597.8118286132814	-268.7288208007813	747.5295410156251	-613.7180175781251	-246.7770385742188	757.8339233398439	-639.1515502929689	-290.6572875976563	669.4061889648439	-615.8729858398439	-323.0792846679688	509.835418701172	-655.8468017578126	-299.0310974121094	333.4484558105469	-735.0067138671876	-348.8383178710938	251.6266784667969	-679.6375122070314	-318.8320312500001	250.0452270507813	-716.7930908203126	-337.8866577148438	213.5369567871094	-758.5265502929689	-399.0695800781251	130.6002197265625	-714.7717895507814	-388.1258544921876	137.4519500732422	-790.075134277344	-466.0805664062501	111.360466003418	-762.0165405273439	-269.1223754882813	55.504451751709	-794.0886840820315	-259.4376220703126	56.65335845947267	-750.9901123046876	-301.2630004882813	52.76123809814455	-693.7174682617189	
522	2.605	-283.3228149414063	1720.702514648438	-679.2023925781251	-410.2091674804689	1686.917114257813	-823.0644531250002	-414.5742187500001	1680.402954101563	-683.1549682617189	-433.5272827148439	1503.493286132813	-743.9317016601564	-456.2276916503907	1213.5537109375	-734.1795043945314	-293.7021179199219	1467.275634765625	-750.9454345703126	-348.9660949707032	1506.306274414063	-892.515563964844	-218.6647644042969	1466.659057617188	-948.622009277344	-192.8522186279297	1470.756103515625	-907.7763671875002	-151.7735290527344	1461.029418945313	-951.8096923828127	-82.19553375244142	1419.609985351563	-975.1533813476565	-81.00508880615236	1362.200561523438	-945.8793945312502	158.8725128173828	1467.127807617188	-904.2042236328127	165.2989196777344	1414.699340820313	-942.7028808593752	234.3831939697266	1483.25244140625	-907.858093261719	-335.3611145019532	1501.625244140625	-615.8428344726564	-213.7362518310547	1415.618041992188	-518.6705322265626	-183.0959777832032	1446.782836914063	-543.7415771484376	-144.9530944824219	1407.869140625	-521.0109252929689	-70.08160400390626	1397.037841796875	-530.6246948242189	-81.01582336425783	1347.196533203125	-557.6967773437501	171.9586486816407	1452.956909179688	-577.6092529296876	183.0310974121094	1396.099487304688	-551.0330200195314	256.3504333496094	1460.952514648438	-565.6810913085939	-308.1638488769532	1014.387145996094	-867.7127075195315	-279.6961059570313	1003.386840820313	-661.8112792968751	-454.666473388672	1081.657104492188	-739.1768188476564	-462.8150024414064	1050.480590820313	-767.8388061523439	-453.5923461914064	1049.44775390625	-710.6995239257814	-310.2411499023438	761.1558227539064	-942.4717407226565	-254.3614044189454	697.8711547851564	-948.3340454101565	-210.0476684570313	713.1884155273439	-934.1992797851565	-263.3330383300782	638.1283569335939	-938.0459594726565	-254.5428924560547	554.4368896484376	-920.8115844726565	-320.4476623535157	434.9631652832032	-881.7127685546877	-390.8430786132814	459.0894165039064	-928.4602050781252	-372.5102233886719	427.2180175781251	-905.5757446289065	-440.2174682617189	392.4360656738282	-862.8294677734377	-589.8862304687501	388.3141479492189	-874.5056152343752	-562.1853637695314	380.0737915039063	-792.0711059570315	-647.7309570312501	425.1925354003907	-818.2709960937502	-564.4053344726564	229.4663848876954	-797.4788818359377	-570.5401000976564	223.0757598876954	-836.1834106445315	-618.4573364257814	246.1708984375001	-881.5371093750002	-310.5847778320313	796.8890380859377	-597.9025268554689	-268.6472473144532	747.5414428710939	-613.8118896484376	-246.6701965332032	757.9747924804689	-639.1948852539064	-290.5050354003907	669.3535156250001	-615.9527587890626	-322.9046936035157	509.8025512695314	-655.9551391601564	-298.8901672363282	333.4284362792969	-735.1511840820314	-348.6580505371094	251.5690002441407	-679.8198242187501	-318.8061523437501	250.0113677978516	-716.8794555664064	-337.9154357910157	213.5314636230469	-758.6431274414064	-399.0462036132814	130.6750183105469	-714.8579711914064	-388.0022888183595	137.3968658447266	-790.1165771484377	-466.0885314941407	111.3638534545899	-762.0150756835939	-269.1456604003907	55.5436134338379	-794.089538574219	-259.4423522949219	56.63537979125978	-750.9492187500001	-301.2493591308594	52.79205322265626	-693.7659301757814	
